<svg xmlns="http://www.w3.org/2000/svg" width="24" height="24" viewBox="0 0 24 24"><g><path fill="#4285F4" d="M21.805 10.023h-9.765v3.955h5.617c-.242 1.236-1.23 2.283-2.617 2.283-1.57 0-2.85-1.28-2.85-2.85s1.28-2.85 2.85-2.85c.7 0 1.34.25 1.84.66l2.82-2.82c-1.13-1.05-2.62-1.7-4.66-1.7-3.31 0-6 2.69-6 6s2.69 6 6 6c3.31 0 6-2.69 6-6 0-.41-.04-.81-.1-1.19z"/><path fill="#34A853" d="M3.69 7.14l3.28 2.41c.6-1.13 1.7-1.95 3.03-1.95.7 0 1.34.25 1.84.66l2.82-2.82c-1.13-1.05-2.62-1.7-4.66-1.7-2.54 0-4.7 1.64-5.47 3.9z"/><path fill="#FBBC05" d="M12 22c2.04 0 3.89-.7 5.34-1.89l-3.28-2.41c-.6.41-1.34.66-2.06.66-1.33 0-2.43-.82-3.03-1.95l-3.28 2.41c1.23 2.26 3.59 3.89 6.31 3.89z"/><path fill="#EA4335" d="M21.805 10.023h-9.765v3.955h5.617c-.242 1.236-1.23 2.283-2.617 2.283-1.57 0-2.85-1.28-2.85-2.85s1.28-2.85 2.85-2.85c.7 0 1.34.25 1.84.66l2.82-2.82c-1.13-1.05-2.62-1.7-4.66-1.7-3.31 0-6 2.69-6 6s2.69 6 6 6c3.31 0 6-2.69 6-6 0-.41-.04-.81-.1-1.19z" opacity=".1"/></g></svg>
